nColumns=28
nRows=59
DataType=double
version=3
OpenSimVersion=4.1
endheader
time	ground_force_1_vx	ground_force_1_vy	ground_force_1_vz	ground_force_1_px	ground_force_1_py	ground_force_1_pz	ground_force_1_mx	ground_force_1_my	ground_force_1_mz	ground_force_2_vx	ground_force_2_vy	ground_force_2_vz	ground_force_2_px	ground_force_2_py	ground_force_2_pz	ground_force_2_mx	ground_force_2_my	ground_force_2_mz	ground_force_3_vx	ground_force_3_vy	ground_force_3_vz	ground_force_3_px	ground_force_3_py	ground_force_3_pz	ground_force_3_mx	ground_force_3_my	ground_force_3_mz
4.43	-24.3929	388.726	-22.4607	-0.242508	0.006	-0.456083	0	0.964791	0	-33.2344	328.338	18.0457	-0.224258	0.006	-0.744752	0	2.32632	0	0	0	0	0	0	0	0	0	0
4.44	-23.3697	382.862	-23.1095	-0.238885	0.006	-0.456033	0	1.06424	0	-31.601	325.453	18.7358	-0.220444	0.006	-0.744733	0	2.06615	0	0	0	0	0	0	0	0	0	0
4.45	-22.2563	376.783	-23.7719	-0.235447	0.006	-0.45629	0	1.2351	0	-29.5316	323.549	19.1887	-0.2172	0.006	-0.744382	0	1.83713	0	0	0	0	0	0	0	0	0	0
4.46	-21.4282	371.198	-24.3925	-0.232038	0.006	-0.456421	0	1.41474	0	-27.416	321.806	19.5073	-0.214166	0.006	-0.743918	0	1.61586	0	0	0	0	0	0	0	0	0	0
4.47	-20.9694	366.48	-24.8628	-0.228635	0.006	-0.456478	0	1.57618	0	-25.5733	320.624	19.3322	-0.211145	0.006	-0.743459	0	1.4351	0	0	0	0	0	0	0	0	0	0
4.48	-20.9414	361.713	-25.222	-0.225067	0.006	-0.456642	0	1.71679	0	-24.5773	319.195	19.1587	-0.20767	0.006	-0.742994	0	1.22151	0	0	0	0	0	0	0	0	0	0
4.49	-21.343	356.463	-25.2606	-0.221349	0.006	-0.456932	0	1.81788	0	-24.1557	316.59	19.4165	-0.204183	0.006	-0.742457	0	0.955123	0	0	0	0	0	0	0	0	0	0
4.5	-21.7897	351.082	-24.8434	-0.217821	0.006	-0.457378	0	1.88563	0	-24.0354	313.272	20.084	-0.200902	0.006	-0.741992	0	0.687314	0	0	0	0	0	0	0	0	0	0
4.51	-22.0001	345.661	-24.3688	-0.214572	0.006	-0.457816	0	1.91198	0	-24.352	309.633	21.218	-0.197961	0.006	-0.741589	0	0.446712	0	0	0	0	0	0	0	0	0	0
4.52	-22.0067	340.561	-24.1399	-0.211646	0.006	-0.458257	0	1.91353	0	-24.5695	306.471	22.5466	-0.195311	0.006	-0.741306	0	0.225832	0	0	0	0	0	0	0	0	0	0
4.53	-21.9453	336.282	-24.1173	-0.209139	0.006	-0.458706	0	1.92818	0	-24.6262	304.831	23.6246	-0.192634	0.006	-0.741152	0	-0.0051344	0	0	0	0	0	0	0	0	0	0
4.54	-21.8589	332.367	-24.13	-0.206985	0.006	-0.459433	0	1.98296	0	-24.6951	305.01	24.1776	-0.190323	0.006	-0.740853	0	-0.17498	0	0	0	0	0	0	0	0	0	0
4.55	-21.6525	327.75	-23.6897	-0.204918	0.006	-0.460178	0	2.00314	0	-25.0467	306.248	24.2205	-0.188454	0.006	-0.740422	0	-0.265983	0	0	0	0	0	0	0	0	0	0
4.56	-21.4688	322.317	-22.6751	-0.202835	0.006	-0.460772	0	1.98132	0	-26.0551	307.617	24.0195	-0.186779	0.006	-0.739954	0	-0.317679	0	0	0	0	0	0	0	0	0	0
4.57	-21.4311	316.515	-21.4645	-0.201007	0.006	-0.461379	0	1.96056	0	-27.3738	308.431	23.6754	-0.184881	0.006	-0.73936	0	-0.361946	0	0	0	0	0	0	0	0	0	0
4.58	-21.2764	310.374	-20.2583	-0.199417	0.006	-0.462133	0	1.92508	0	-28.6205	308.584	23.1355	-0.183042	0.006	-0.73882	0	-0.370487	0	0	0	0	0	0	0	0	0	0
4.59	-20.9955	304.409	-19.2773	-0.197861	0.006	-0.462769	0	1.8855	0	-29.455	307.769	22.6079	-0.181483	0.006	-0.738339	0	-0.310719	0	0	0	0	0	0	0	0	0	0
4.6	-20.5587	298.304	-18.5171	-0.196298	0.006	-0.463335	0	1.8561	0	-29.8385	305.504	22.2502	-0.17991	0.006	-0.737855	0	-0.231928	0	0	0	0	0	0	0	0	0	0
4.61	-19.9637	291.835	-17.8623	-0.194947	0.006	-0.463984	0	1.82716	0	-30.211	301.927	22.1499	-0.178008	0.006	-0.737257	0	-0.192839	0	0	0	0	0	0	0	0	0	0
4.62	-19.4082	285.195	-17.409	-0.193757	0.006	-0.464575	0	1.80361	0	-30.9145	297.558	22.3626	-0.176144	0.006	-0.736608	0	-0.197843	0	0	0	0	0	0	0	0	0	0
4.63	-18.8803	278.193	-17.0517	-0.192537	0.006	-0.465114	0	1.75742	0	-31.7732	293.323	22.501	-0.174605	0.006	-0.736232	0	-0.183829	0	0	0	0	0	0	0	0	0	0
4.64	-18.5273	270.711	-16.7791	-0.191202	0.006	-0.465374	0	1.68268	0	-32.276	289.316	22.4417	-0.173366	0.006	-0.735748	0	-0.121385	0	0	0	0	0	0	0	0	0	0
4.65	-18.5025	262.422	-16.771	-0.189758	0.006	-0.465609	0	1.6168	0	-32.2416	285.343	22.4007	-0.172315	0.006	-0.735221	0	-0.0471808	0	0	0	0	0	0	0	0	0	0
4.66	-18.3298	253.393	-17.0203	-0.188342	0.006	-0.465985	0	1.58317	0	-31.8319	281.447	22.4796	-0.171489	0.006	-0.73493	0	-0.0215049	0	0	0	0	0	0	0	0	0	0
4.67	-17.8747	244.718	-17.4051	-0.187008	0.006	-0.466209	0	1.57777	0	-30.984	277.158	22.6509	-0.171048	0.006	-0.734614	0	-0.060852	0	0	0	0	0	0	0	0	0	0
4.68	-17.2609	236.929	-17.7311	-0.185734	0.006	-0.466517	0	1.58392	0	-29.8718	271.99	22.9089	-0.170646	0.006	-0.734454	0	-0.12204	0	0	0	0	0	0	0	0	0	0
4.69	-16.2299	229.755	-17.5153	-0.184638	0.006	-0.467248	0	1.54592	0	-28.8141	265.717	22.9267	-0.169997	0.006	-0.733975	0	-0.194067	0	0	0	0	0	0	0	0	0	0
4.7	-15.3362	222.505	-16.6171	-0.183566	0.006	-0.468307	0	1.44728	0	-28.1446	258.894	22.3728	-0.169118	0.006	-0.733431	0	-0.262101	0	0	0	0	0	0	0	0	0	0
4.71	-15.0845	215.067	-15.385	-0.182297	0.006	-0.469647	0	1.33056	0	-27.7169	251.55	21.4903	-0.168031	0.006	-0.733062	0	-0.307342	0	0	0	0	0	0	0	0	0	0
4.72	-15.1078	207.898	-14.1711	-0.180742	0.006	-0.471258	0	1.20827	0	-27.1749	243.331	20.5541	-0.166498	0.006	-0.732587	0	-0.358754	0	0	0	0	0	0	0	0	0	0
4.73	-14.876	201.033	-12.9769	-0.179241	0.006	-0.472861	0	1.11307	0	-26.3442	234.518	19.7027	-0.164893	0.006	-0.731913	0	-0.397899	0	0	0	0	0	0	0	0	0	0
4.74	-13.9919	194.562	-11.7404	-0.178123	0.006	-0.474423	0	1.09475	0	-25.2912	225.642	18.8753	-0.163643	0.006	-0.730959	0	-0.410493	0	0	0	0	0	0	0	0	0	0
4.75	-12.4531	188.23	-10.4192	-0.176996	0.006	-0.475928	0	1.11261	0	-24.1896	217.2	17.963	-0.162437	0.006	-0.730024	0	-0.411639	0	0	0	0	0	0	0	0	0	0
4.76	-10.7982	182.046	-8.88046	-0.175573	0.006	-0.477325	0	1.1146	0	-23.0982	209.302	17.219	-0.161175	0.006	-0.729322	0	-0.396768	0	0	0	0	0	0	0	0	0	0
4.77	-9.51915	176.656	-7.40784	-0.173856	0.006	-0.478603	0	1.05893	0	-22.1619	201.881	16.7836	-0.160113	0.006	-0.728714	0	-0.353002	0	0	0	0	0	0	0	0	0	0
4.78	-9.41782	172.245	-6.28229	-0.171885	0.006	-0.479627	0	0.992343	0	-21.3368	195.396	16.5293	-0.159367	0.006	-0.728076	0	-0.291449	0	0	0	0	0	0	0	0	0	0
4.79	-10.4079	169.158	-5.62021	-0.169586	0.006	-0.480438	0	0.965248	0	-20.3642	190.319	16.5416	-0.158539	0.006	-0.727554	0	-0.264732	0	0	0	0	0	0	0	0	0	0
4.8	-11.4105	167.317	-5.37832	-0.167425	0.006	-0.480682	0	0.939425	0	-19.2833	186.577	16.6859	-0.157151	0.006	-0.727437	0	-0.216914	0	0	0	0	0	0	0	0	0	0
4.81	-12.1607	166.106	-5.68627	-0.16579	0.006	-0.480769	0	0.897271	0	-18.4371	183.353	16.7449	-0.155705	0.006	-0.727086	0	-0.158357	0	0	0	0	0	0	0	0	0	0
4.82	-12.7189	165.338	-6.59011	-0.164244	0.006	-0.480475	0	0.842004	0	-17.5656	180.29	16.6283	-0.154206	0.006	-0.72663	0	-0.128427	0	0	0	0	0	0	0	0	0	0
4.83	-13.2665	164.965	-7.99155	-0.162639	0.006	-0.479749	0	0.834019	0	-16.8449	177.483	16.2954	-0.153005	0.006	-0.72638	0	-0.155798	0	0	0	0	0	0	0	0	0	0
4.84	-13.9651	164.973	-9.6774	-0.161128	0.006	-0.478974	0	0.904629	0	-16.2525	174.692	15.5463	-0.151979	0.006	-0.72621	0	-0.212194	0	0	0	0	0	0	0	0	0	0
4.85	-14.3795	165.21	-11.2384	-0.159705	0.006	-0.478293	0	0.989008	0	-15.4039	172.394	14.4063	-0.150909	0.006	-0.726107	0	-0.16284	0	0	0	0	0	0	0	0	0	0
4.86	-14.6241	166.729	-12.4211	-0.158627	0.006	-0.477653	0	1.05825	0	-14.4378	171.291	13.0485	-0.150296	0.006	-0.725802	0	-0.0706665	0	0	0	0	0	0	0	0	0	0
4.87	-15.0642	170.664	-13.1728	-0.157763	0.006	-0.477272	0	1.10365	0	-13.75	172.289	11.7074	-0.149912	0.006	-0.725679	0	-0.0238125	0	0	0	0	0	0	0	0	0	0
4.88	-15.4628	176.846	-13.0728	-0.157124	0.006	-0.477079	0	1.08063	0	-13.1713	175.386	10.6593	-0.14947	0.006	-0.726026	0	0.0452391	0	0	0	0	0	0	0	0	0	0
4.89	-15.5452	185.428	-12.2666	-0.15687	0.006	-0.476589	0	0.979436	0	-12.615	180.177	10.2167	-0.14923	0.006	-0.726763	0	0.120243	0	0	0	0	0	0	0	0	0	0
4.9	-15.4002	195.557	-11.3126	-0.156623	0.006	-0.475867	0	0.792031	0	-12.3609	186.441	10.5349	-0.14896	0.006	-0.727483	0	0.159931	0	0	0	0	0	0	0	0	0	0
4.91	-15.622	206.545	-10.7647	-0.156357	0.006	-0.47487	0	0.589033	0	-12.027	193.602	11.4456	-0.148781	0.006	-0.728529	0	0.187361	0	0	0	0	0	0	0	0	0	0
4.92	-16.3461	217.843	-11.105	-0.156191	0.006	-0.473634	0	0.450444	0	-12.0032	201.575	12.8018	-0.148652	0.006	-0.729775	0	0.175081	0	0	0	0	0	0	0	0	0	0
4.93	-17.2917	228.978	-12.6111	-0.156248	0.006	-0.472496	0	0.40592	0	-12.7758	210.795	14.4976	-0.148804	0.006	-0.731175	0	0.116798	0	0	0	0	0	0	0	0	0	0
4.94	-18.3123	239.82	-15.0062	-0.156521	0.006	-0.471505	0	0.472457	0	-14.2231	221.102	16.4391	-0.148829	0.006	-0.732581	0	0.0501098	0	0	0	0	0	0	0	0	0	0
4.95	-19.4575	251.548	-17.7303	-0.157118	0.006	-0.470368	0	0.539686	0	-16.2926	231.856	18.5211	-0.149067	0.006	-0.733773	0	0.0108037	0	0	0	0	0	0	0	0	0	0
4.96	-21.0789	264.044	-20.189	-0.157982	0.006	-0.469188	0	0.583088	0	-18.4856	242.319	20.5907	-0.14987	0.006	-0.734982	0	-0.0415487	0	0	0	0	0	0	0	0	0	0
4.97	-22.7981	275.982	-22.0287	-0.158987	0.006	-0.468373	0	0.591406	0	-20.0902	252.237	22.4253	-0.150906	0.006	-0.735973	0	-0.0830056	0	0	0	0	0	0	0	0	0	0
4.98	-23.6033	286.515	-23.3707	-0.160292	0.006	-0.467741	0	0.579071	0	-21.2545	262.903	24.0078	-0.152301	0.006	-0.736728	0	-0.0837465	0	0	0	0	0	0	0	0	0	0
4.99	-22.8494	295.605	-24.3805	-0.162	0.006	-0.467445	0	0.544685	0	-22.1204	274.891	25.1942	-0.154394	0.006	-0.737266	0	-0.00641735	0	0	0	0	0	0	0	0	0	0
5	-20.9984	304.144	-25.1793	-0.164295	0.006	-0.467496	0	0.490361	0	-22.7193	287.234	25.6717	-0.15702	0.006	-0.737308	0	0.158525	0	0	0	0	0	0	0	0	0	0
5.01	-19.036	313.163	-25.6243	-0.167254	0.006	-0.467594	0	0.396539	0	-23.432	298.663	25.3777	-0.159573	0.006	-0.737129	0	0.344049	0	0	0	0	0	0	0	0	0	0
